<?xml version="1.0" encoding="UTF-8" standalone="no"?>
<svg
   width="628.29199"
   height="100"
   viewBox="0 0 166.23557 26.45833"
   version="1.1"
   id="svg1"
   xmlns="http://www.w3.org/2000/svg"
   xmlns:svg="http://www.w3.org/2000/svg">
  <defs
     id="defs1" />
  <path
     id="path1"
     style="fill:#266280;fill-opacity:1;"
     d="M 0 0.16536456 L 17.579287 26.45833 L 22.36349 19.302695 L 27.147694 26.45833 L 44.72698 0.16536456 L 35.937337 0.16536456 L 27.147694 13.311847 L 26.758053 12.729454 L 35.158573 0.16536456 L 26.36893 0.16536456 L 22.36349 6.1562126 L 18.35805 0.16536456 L 9.568407 0.16536456 L 17.968927 12.729454 L 17.579287 13.311847 L 8.7896433 0.16536456 L 0 0.16536456 z " />
  <path
     id="path2"
     style="fill:#2e7599;fill-opacity:1;"
     d="M 6.0988518 0.16536456 L 19.001422 19.463926 L 22.36349 14.435293 L 25.725558 19.463926 L 38.628645 0.16536456 L 32.176843 0.16536456 L 25.725558 9.8149036 L 25.589133 9.6107817 L 31.904509 0.16536456 L 25.453224 0.16536456 L 22.36349 4.7862706 L 19.273757 0.16536456 L 12.822472 0.16536456 L 19.137848 9.6107817 L 19.001422 9.8149036 L 12.550137 0.16536456 L 6.0988518 0.16536456 z " />
  <path
     id="path3"
     style="fill:#3689b2;fill-opacity:1;"
     d="M 12.550137 0.16536456 L 20.446811 11.976012 L 22.36349 9.1090036 L 24.280686 11.976012 L 32.176843 0.16536456 L 28.342969 0.16536456 L 28.228764 0.16536456 L 24.39489 0.16536456 L 22.36349 3.2034216 L 20.33209 0.16536456 L 16.498216 0.16536456 L 16.384011 0.16536456 L 12.550137 0.16536456 z " />
  <path
     style="fill:#89c7e5;fill-opacity:1;"
     d="m 51.838745,20.030203 4.972034,0.834591 q -0.958893,2.73462 -3.036492,4.172959 -2.059844,1.420581 -5.167367,1.420581 -4.918764,0 -7.280479,-3.214064 -1.864514,-2.574806 -1.864514,-6.499162 0,-4.687919 2.450503,-7.3337546 2.450503,-2.6635896 6.197286,-2.6635896 4.208474,0 6.64122,2.7878917 2.432746,2.7701345 2.326202,8.5057325 H 44.57602 q 0.05328,2.21966 1.207495,3.462668 1.154222,1.225251 2.876677,1.225251 1.17198,0 1.971058,-0.639261 0.799076,-0.639262 1.207495,-2.059843 z m 0.284115,-5.043065 q -0.05327,-2.166388 -1.118707,-3.285095 -1.065439,-1.136466 -2.592563,-1.136466 -1.633668,0 -2.699104,1.189737 -1.065435,1.189737 -1.047681,3.231824 z m 8.807607,11.045023 V 8.6054206e-7 h 4.989791 V 9.3758402 q 2.308447,-2.6280764 5.469241,-2.6280764 3.444909,0 5.700082,2.5037761 2.255175,2.4860171 2.255175,7.1561791 0,4.829978 -2.308446,7.440298 -2.290686,2.610317 -5.575783,2.610317 -1.615911,0 -3.196308,-0.799077 -1.562639,-0.816834 -2.699105,-2.397232 v 2.770136 z m 4.954276,-9.837529 q 0,2.92995 0.923379,4.332775 1.29628,1.988814 3.444911,1.988814 1.651426,0 2.805649,-1.402825 1.171979,-1.420581 1.171979,-4.457075 0,-3.231823 -1.171979,-4.652405 -1.171979,-1.438339 -3.000979,-1.438339 -1.793484,0 -2.983222,1.402823 -1.189738,1.385068 -1.189738,4.226232 z m 15.715185,4.457076 5.007551,-0.763563 q 0.319632,1.456095 1.29628,2.219659 0.976651,0.745805 2.734622,0.745805 1.935534,0 2.912189,-0.710291 0.657023,-0.497204 0.657023,-1.331796 0,-0.568231 -0.355151,-0.941136 -0.372903,-0.355144 -1.669176,-0.657018 -6.037476,-1.331796 -7.653388,-2.432746 -2.237415,-1.527125 -2.237415,-4.243987 0,-2.450504 1.935541,-4.1196877 1.935542,-1.6691835 6.001958,-1.6691835 3.871084,0 5.753356,1.2607662 1.882271,1.260766 2.592563,3.729027 l -4.705685,0.870106 q -0.301862,-1.100951 -1.154218,-1.68694 -0.834592,-0.58599 -2.397232,-0.58599 -1.971056,0 -2.823404,0.550474 -0.568231,0.39066 -0.568231,1.012165 0,0.532718 0.497202,0.905622 0.674776,0.497203 4.652406,1.402823 3.995375,0.905622 5.575775,2.219659 1.562647,1.331795 1.562647,3.711269 0,2.592562 -2.16639,4.457076 -2.166373,1.864513 -6.41037,1.864513 -3.853329,0 -6.108503,-1.562639 -2.237415,-1.562641 -2.92995,-4.243987 z"
     id="path4" />
  <path
     style="fill:#215b78;fill-opacity:1;"
     d="m 112.23121,7.1739382 v 3.9776288 h -3.40938 v 7.600112 q 0,2.308445 0.0887,2.699105 0.10654,0.372903 0.44394,0.621505 0.35514,0.248602 0.85234,0.248602 0.69254,0 2.00657,-0.479447 l 0.42618,3.871084 q -1.74021,0.745806 -3.94212,0.745806 -1.34955,0 -2.43274,-0.443932 -1.0832,-0.461689 -1.59817,-1.171979 -0.49719,-0.728048 -0.69253,-1.953301 -0.1598,-0.870105 -0.1598,-3.515938 v -8.221617 h -2.29069 V 7.1739382 h 2.29069 V 3.4271543 l 5.0076,-2.91219259 V 7.1739382 Z m 8.23938,18.8582228 H 115.4808 V 7.1739382 h 4.63465 v 2.6813481 q 1.18974,-1.900028 2.13087,-2.5037754 0.95889,-0.6037471 2.16639,-0.6037471 1.70469,0 3.28509,0.9411353 l -1.54487,4.3505319 q -1.26078,-0.816834 -2.34398,-0.816834 -1.04766,0 -1.77571,0.585989 -0.72805,0.568232 -1.15423,2.077601 -0.40842,1.509369 -0.40842,6.321587 z m 20.29657,-6.001958 4.97204,0.834591 q -0.95889,2.73462 -3.0365,4.172959 -2.05985,1.420581 -5.16736,1.420581 -4.91878,0 -7.28048,-3.214064 -1.86452,-2.574806 -1.86452,-6.499162 0,-4.687919 2.4505,-7.3337546 2.4505,-2.6635896 6.19729,-2.6635896 4.20846,0 6.64121,2.7878917 2.43275,2.7701345 2.32621,8.5057325 h -12.50111 q 0.0533,2.21966 1.20748,3.462668 1.15423,1.225251 2.87669,1.225251 1.17198,0 1.97104,-0.639261 0.79908,-0.639262 1.20751,-2.059843 z m 0.28411,-5.043065 q -0.0533,-2.166388 -1.1187,-3.285095 -1.06544,-1.136466 -2.59257,-1.136466 -1.63367,0 -2.69911,1.189737 -1.06543,1.189737 -1.04768,3.231824 z m 19.94141,5.043065 4.97205,0.834591 q -0.9589,2.73462 -3.03651,4.172959 -2.05984,1.420581 -5.16736,1.420581 -4.91877,0 -7.28048,-3.214064 -1.86451,-2.574806 -1.86451,-6.499162 0,-4.687919 2.4505,-7.3337546 2.4505,-2.6635896 6.19729,-2.6635896 4.20847,0 6.64121,2.7878917 2.43275,2.7701345 2.32621,8.5057325 h -12.50113 q 0.0533,2.21966 1.2075,3.462668 1.15423,1.225251 2.87668,1.225251 1.17198,0 1.97106,-0.639261 0.79908,-0.639262 1.20749,-2.059843 z m 0.28412,-5.043065 q -0.0533,-2.166388 -1.1187,-3.285095 -1.06545,-1.136466 -2.59257,-1.136466 -1.63367,0 -2.6991,1.189737 -1.06545,1.189737 -1.04768,3.231824 z"
     id="path5" />
</svg>
